# xmcd
#
# Track frame offsets: 
#        150
#        26835
#        50768
#        70912
#        92303
#        107450
#        127628
#        156005
#        177282
#        200769
#        222724
#        241649
#        266775
#
# Disc length: 3772 seconds
#
# Revision: 0
# Processed by: cddbd v1.5.2PL0 Copyright (c) Steve Scherf et al.
# Submitted via: ExactAudioCopy v0.95a5
#
DISCID=b20eba0d
DTITLE=Keith Urban - Love Pain and the Whole Crazy Thing
DYEAR=2007
DGENRE=Country
TTITLE0=Once in a Lifetime
TTITLE1=Shine
TTITLE2=I Told You So
TTITLE3=I Can't Stop Loving You
TTITLE4=Won't Let You Down
TTITLE5=Faster Car
TTITLE6=Stupid Boy
TTITLE7=Used to the Pain
TTITLE8=Raise the Barn
TTITLE9=God Made Woman
TTITLE10=Tu Compañía
TTITLE11=Everybody
TTITLE12=Got It Right This Time
EXTD=
EXTT0=
EXTT1=
EXTT2=
EXTT3=
EXTT4=
EXTT5=
EXTT6=
EXTT7=
EXTT8=
EXTT9=
EXTT10=
EXTT11=
EXTT12=
PLAYORDER=
